<?xml version="1.0" encoding="UTF-8"?>
<!DOCTYPE svg PUBLIC "-//W3C//DTD SVG 1.1//EN" "http://www.w3.org/Graphics/SVG/1.1/DTD/svg11.dtd">
<svg xmlns="http://www.w3.org/2000/svg" version="1.1" width="128" viewBox="0 0 849 242" style="shape-rendering:geometricPrecision; text-rendering:geometricPrecision; image-rendering:optimizeQuality; fill-rule:evenodd; clip-rule:evenodd" xmlns:xlink="http://www.w3.org/1999/xlink">
<g><path style="opacity:0.999" fill="#171515" d="M 118.5,-0.5 C 121.833,-0.5 125.167,-0.5 128.5,-0.5C 183.178,4.32717 220.678,32.3272 241,83.5C 256.297,136.489 243.797,181.656 203.5,219C 191.68,228.576 178.68,236.076 164.5,241.5C 162.167,241.5 159.833,241.5 157.5,241.5C 156.531,240.691 155.698,239.691 155,238.5C 154.902,222.794 154.235,207.128 153,191.5C 152.016,186.699 149.85,182.532 146.5,179C 186.101,174.051 204.601,151.551 202,111.5C 200.909,100.877 196.742,91.7107 189.5,84C 193.128,73.4607 192.794,62.9607 188.5,52.5C 183.369,51.2654 178.369,51.7654 173.5,54C 166.845,56.9925 160.512,60.4925 154.5,64.5C 134.004,59.1798 113.504,59.1798 93,64.5C 83.9756,57.5733 73.8089,53.24 62.5,51.5C 61.1667,51.8333 59.8333,52.1667 58.5,52.5C 54.9956,62.7387 54.6622,73.072 57.5,83.5C 44.5446,101.111 41.3779,120.444 48,141.5C 52.5059,157.028 62.3393,167.528 77.5,173C 85.0882,175.383 92.7549,177.383 100.5,179C 96.5982,183.856 93.9315,189.356 92.5,195.5C 75.0679,202.191 62.2346,197.191 54,180.5C 49.7182,176.109 44.5515,173.442 38.5,172.5C 36.192,172.365 34.192,173.031 32.5,174.5C 35.4941,178.082 38.9941,181.082 43,183.5C 47.4381,189.375 51.1047,195.708 54,202.5C 58.7224,208.558 64.8891,212.058 72.5,213C 79.5181,213.565 86.5181,213.399 93.5,212.5C 93.6664,220.507 93.4997,228.507 93,236.5C 92.7428,238.907 91.5762,240.573 89.5,241.5C 87.1667,241.5 84.8333,241.5 82.5,241.5C 33.7474,221.743 6.08069,185.743 -0.5,133.5C -0.5,127.167 -0.5,120.833 -0.5,114.5C 7.20224,56.6176 39.2022,19.4509 95.5,3C 103.276,1.5809 110.943,0.414229 118.5,-0.5 Z"/></g>
<g><path style="opacity:0.988" fill="#0f0d0e" d="M 338.5,44.5 C 350.876,44.1569 363.209,44.6569 375.5,46C 379.211,46.8443 382.877,47.8443 386.5,49C 389.076,49.7822 391.076,51.2822 392.5,53.5C 390.512,61.1197 388.679,68.7863 387,76.5C 386.333,77.1667 385.667,77.8333 385,78.5C 336.393,63.9775 314.726,81.9775 320,132.5C 323.186,160.53 338.686,171.53 366.5,165.5C 366.5,155.833 366.5,146.167 366.5,136.5C 359.833,136.5 353.167,136.5 346.5,136.5C 346.168,127.475 346.502,118.475 347.5,109.5C 363.789,108.349 380.122,108.182 396.5,109C 397,109.5 397.5,110 398,110.5C 398.667,134.833 398.667,159.167 398,183.5C 393.546,187.446 388.379,190.279 382.5,192C 314.546,205.722 283.046,177.889 288,108.5C 288.331,87.8145 295.831,70.3145 310.5,56C 319.116,50.1847 328.449,46.3513 338.5,44.5 Z"/></g>
<g><path style="opacity:0.988" fill="#0f0d0e" d="M 536.5,49.5 C 546.416,49.181 556.25,49.5144 566,50.5C 566.5,68.1635 566.667,85.8302 566.5,103.5C 579.837,103.667 593.171,103.5 606.5,103C 607.326,85.5737 607.826,68.0737 608,50.5C 617.756,49.3485 627.589,49.1819 637.5,50C 638.664,97.4292 638.83,144.929 638,192.5C 628,193.833 618,193.833 608,192.5C 607.5,172.169 607.333,151.836 607.5,131.5C 593.833,131.5 580.167,131.5 566.5,131.5C 566.833,151.844 566.5,172.178 565.5,192.5C 555.881,193.641 546.214,193.807 536.5,193C 536,192.5 535.5,192 535,191.5C 534.333,144.833 534.333,98.1667 535,51.5C 535.717,50.9558 536.217,50.2891 536.5,49.5 Z"/></g>
<g><path style="opacity:0.986" fill="#0f0d0e" d="M 848.5,131.5 C 848.5,138.5 848.5,145.5 848.5,152.5C 844.866,191.845 824.2,204.678 786.5,191C 784.167,189.5 781.833,188 779.5,186.5C 778.723,188.781 777.723,190.948 776.5,193C 769.833,193.667 763.167,193.667 756.5,193C 756,192.5 755.5,192 755,191.5C 754.333,144.5 754.333,97.5 755,50.5C 765.106,49.1818 775.272,49.1818 785.5,50.5C 786.319,66.4557 786.819,82.4557 787,98.5C 800.787,91.5462 814.953,90.7129 829.5,96C 841.588,104.771 847.921,116.604 848.5,131.5 Z M 795.5,118.5 C 806.849,115.981 813.682,120.314 816,131.5C 817.664,141.543 817.331,151.543 815,161.5C 812.764,167.457 808.431,170.457 802,170.5C 796.221,170.201 790.888,168.534 786,165.5C 785.167,151.155 785.334,136.822 786.5,122.5C 789.482,120.836 792.482,119.503 795.5,118.5 Z"/></g>
<g><path style="opacity:0.989" fill="#0f0d0e" d="M 425.5,52.5 C 443.241,54.3064 449.074,63.6397 443,80.5C 435.475,88.3375 426.975,89.5042 417.5,84C 409.267,74.3403 409.6,65.007 418.5,56C 420.925,54.7874 423.259,53.6207 425.5,52.5 Z"/></g>
<g><path style="opacity:0.991" fill="#0f0d0e" d="M 469.5,67.5 C 479.833,67.5 490.167,67.5 500.5,67.5C 500.5,76.8333 500.5,86.1667 500.5,95.5C 507.508,95.3337 514.508,95.5004 521.5,96C 522.833,104.333 522.833,112.667 521.5,121C 514.508,121.5 507.508,121.666 500.5,121.5C 500.333,135.837 500.5,150.171 501,164.5C 502.167,166.333 503.667,167.833 505.5,169C 511.026,170.432 516.526,170.932 522,170.5C 522.667,177.833 522.667,185.167 522,192.5C 509.48,196.614 496.98,196.448 484.5,192C 476.147,187.296 471.313,180.129 470,170.5C 469.5,154.17 469.333,137.837 469.5,121.5C 464.489,121.666 459.489,121.499 454.5,121C 453.167,114 453.167,107 454.5,100C 459.334,98.1331 464.334,96.9665 469.5,96.5C 469.5,86.8333 469.5,77.1667 469.5,67.5 Z"/></g>
<g><path style="opacity:0.973" fill="#0f0d0e" d="M 413.5,95.5 C 423.926,94.873 434.093,95.5396 444,97.5C 444.667,128.5 444.667,159.5 444,190.5C 443.626,191.416 443.126,192.25 442.5,193C 433.167,193.667 423.833,193.667 414.5,193C 414,192.5 413.5,192 413,191.5C 412.175,159.428 412.341,127.428 413.5,95.5 Z"/></g>
<g><path style="opacity:0.997" fill="#0f0d0e" d="M 651.5,95.5 C 661.749,95.1806 671.916,95.5139 682,96.5C 682.333,118.167 682.667,139.833 683,161.5C 683.982,167.929 687.815,170.929 694.5,170.5C 700.229,170.394 705.396,168.727 710,165.5C 710.333,142.5 710.667,119.5 711,96.5C 721,95.1667 731,95.1667 741,96.5C 741.667,128.5 741.667,160.5 741,192.5C 734.582,193.643 728.082,193.81 721.5,193C 719.845,191.556 719.178,189.722 719.5,187.5C 709.473,192.505 698.807,195.505 687.5,196.5C 675.34,197.265 665.173,193.265 657,184.5C 654.754,180.766 653.087,176.766 652,172.5C 651.5,146.835 651.333,121.169 651.5,95.5 Z"/></g>
<g><path style="opacity:0.953" fill="#131111" d="M 43.5,175.5 C 44.9953,175.415 45.9953,176.081 46.5,177.5C 44.6043,178.639 43.6043,177.973 43.5,175.5 Z"/></g>
<g><path style="opacity:0.962" fill="#151213" d="M 48.5,180.5 C 49.5,180.5 50.5,180.5 51.5,180.5C 50.7542,184.31 49.7542,184.31 48.5,180.5 Z"/></g>
<g><path style="opacity:1" fill="#161414" d="M 53.5,186.5 C 56.5,186.167 57.8333,187.5 57.5,190.5C 54.5,190.833 53.1667,189.5 53.5,186.5 Z"/></g>
<g><path style="opacity:0.987" fill="#161414" d="M 58.5,193.5 C 63.1965,193.007 64.3632,194.674 62,198.5C 59.8415,197.511 58.6748,195.844 58.5,193.5 Z"/></g>
<g><path style="opacity:0.98" fill="#161414" d="M 67.5,198.5 C 70.9496,197.756 72.6162,199.09 72.5,202.5C 69.0504,203.244 67.3838,201.91 67.5,198.5 Z"/></g>
<g><path style="opacity:0.992" fill="#151313" d="M 88.5,198.5 C 93.3586,199.345 93.692,201.011 89.5,203.5C 85.8622,202.459 85.5288,200.792 88.5,198.5 Z"/></g>
<g><path style="opacity:0.986" fill="#151313" d="M 77.5,200.5 C 79.1667,200.5 80.8333,200.5 82.5,200.5C 82.6499,204.161 81.1499,205.161 78,203.5C 77.5172,202.552 77.3505,201.552 77.5,200.5 Z"/></g>
</svg>
