<?xml version="1.0" encoding="UTF-8"?>
<!DOCTYPE svg PUBLIC "-//W3C//DTD SVG 1.1//EN" "http://www.w3.org/Graphics/SVG/1.1/DTD/svg11.dtd">
<svg xmlns="http://www.w3.org/2000/svg" version="1.1" width="128" viewBox="0 0 432 117" style="shape-rendering:geometricPrecision; text-rendering:geometricPrecision; image-rendering:optimizeQuality; fill-rule:evenodd; clip-rule:evenodd" xmlns:xlink="http://www.w3.org/1999/xlink">
<g><path style="opacity:1" fill="#fcfcfc" d="M -0.5,-0.5 C 143.5,-0.5 287.5,-0.5 431.5,-0.5C 431.5,38.5 431.5,77.5 431.5,116.5C 287.5,116.5 143.5,116.5 -0.5,116.5C -0.5,77.5 -0.5,38.5 -0.5,-0.5 Z"/></g>
<g><path style="opacity:1" fill="#036599" d="M 321.5,2.5 C 355.835,2.33335 390.168,2.50002 424.5,3C 425.931,3.46524 427.097,4.29857 428,5.5C 429.653,40.0816 429.986,74.7483 429,109.5C 428.215,111.286 427.049,112.786 425.5,114C 390.833,114.667 356.167,114.667 321.5,114C 320.584,113.626 319.75,113.126 319,112.5C 317.347,77.2516 317.014,41.9182 318,6.5C 319.376,5.29493 320.542,3.9616 321.5,2.5 Z"/></g>
<g><path style="opacity:1" fill="#030303" d="M 60.5,21.5 C 67.9775,19.888 72.3108,22.7213 73.5,30C 73.5924,32.8139 72.5924,35.1473 70.5,37C 59.342,40.8289 54.5086,36.9956 56,25.5C 57.3968,23.9297 58.8968,22.5964 60.5,21.5 Z"/></g>
<g><path style="opacity:1" fill="#fbfcfd" d="M 338.5,21.5 C 347.457,19.9706 351.957,23.6373 352,32.5C 349.081,38.0248 344.581,39.8581 338.5,38C 333.845,35.1034 332.345,30.9367 334,25.5C 335.397,23.9297 336.897,22.5964 338.5,21.5 Z"/></g>
<g><path style="opacity:1" fill="#000000" d="M 2.5,23.5 C 7.83333,23.5 13.1667,23.5 18.5,23.5C 18.1697,43.0072 18.503,62.3405 19.5,81.5C 29.1667,81.5 38.8333,81.5 48.5,81.5C 48.5,86.5 48.5,91.5 48.5,96.5C 33.1667,96.5 17.8333,96.5 2.5,96.5C 2.5,72.1667 2.5,47.8333 2.5,23.5 Z"/></g>
<g><path style="opacity:1" fill="#707070" d="M 2.5,23.5 C 7.97533,22.5111 13.642,22.1778 19.5,22.5C 19.5,42.1667 19.5,61.8333 19.5,81.5C 18.503,62.3405 18.1697,43.0072 18.5,23.5C 13.1667,23.5 7.83333,23.5 2.5,23.5 Z"/></g>
<g><path style="opacity:1" fill="#020202" d="M 139.5,22.5 C 145.167,22.5 150.833,22.5 156.5,22.5C 156.333,36.504 156.5,50.504 157,64.5C 161.833,57.6667 166.667,50.8333 171.5,44C 178.167,43.3333 184.833,43.3333 191.5,44C 185.167,51 178.833,58 172.5,65C 179.833,75.3333 187.167,85.6667 194.5,96C 187.476,96.8311 180.476,96.6644 173.5,95.5C 169.651,88.4557 165.318,81.789 160.5,75.5C 159.108,76.6053 157.941,77.9386 157,79.5C 156.501,85.1569 156.334,90.8236 156.5,96.5C 150.833,96.5 145.167,96.5 139.5,96.5C 139.5,71.8333 139.5,47.1667 139.5,22.5 Z"/></g>
<g><path style="opacity:1" fill="#8c8c8c" d="M 300.5,95.5 C 299.502,71.6725 299.169,47.6725 299.5,23.5C 294.167,23.5 288.833,23.5 283.5,23.5C 283.832,32.2546 283.499,40.2546 282.5,47.5C 282.5,39.1667 282.5,30.8333 282.5,22.5C 288.5,22.5 294.5,22.5 300.5,22.5C 300.5,46.8333 300.5,71.1667 300.5,95.5 Z"/></g>
<g><path style="opacity:1" fill="#020202" d="M 300.5,95.5 C 295.695,96.4872 290.695,96.8205 285.5,96.5C 285.477,94.0733 284.977,91.74 284,89.5C 275.353,98.2665 265.52,99.7665 254.5,94C 245.061,84.7591 241.894,73.5924 245,60.5C 252.915,42.4737 265.415,38.1403 282.5,47.5C 283.499,40.2546 283.832,32.2546 283.5,23.5C 288.833,23.5 294.167,23.5 299.5,23.5C 299.169,47.6725 299.502,71.6725 300.5,95.5 Z"/></g>
<g><path style="opacity:1" fill="#030303" d="M 210.5,42.5 C 232.954,41.9605 242.954,52.9605 240.5,75.5C 228.833,75.5 217.167,75.5 205.5,75.5C 206.235,80.7369 209.235,83.9035 214.5,85C 221.314,85.9912 227.98,85.4912 234.5,83.5C 236.121,86.2394 237.121,89.2394 237.5,92.5C 236.811,94.3527 235.478,95.5193 233.5,96C 222.578,98.605 211.911,97.9383 201.5,94C 190.895,86.1382 187.062,75.6382 190,62.5C 193.453,52.2119 200.286,45.5452 210.5,42.5 Z"/></g>
<g><path style="opacity:1" fill="#010101" d="M 81.5,96.5 C 81.5,79.8333 81.5,63.1667 81.5,46.5C 86.8333,46.5 92.1667,46.5 97.5,46.5C 97.3379,48.5273 97.5045,50.5273 98,52.5C 108.278,41.8448 118.611,41.8448 129,52.5C 130.605,55.6478 131.605,58.9811 132,62.5C 132.5,73.8284 132.667,85.1618 132.5,96.5C 126.833,96.5 121.167,96.5 115.5,96.5C 115.667,85.495 115.5,74.495 115,63.5C 108.998,55.3557 103.332,55.689 98,64.5C 97.5002,75.1615 97.3335,85.8281 97.5,96.5C 92.1667,96.5 86.8333,96.5 81.5,96.5 Z"/></g>
<g><path style="opacity:1" fill="#fcfdfd" d="M 387.5,44.5 C 398.174,43.0862 406.007,47.0862 411,56.5C 412.425,69.7731 412.925,83.1065 412.5,96.5C 406.833,96.5 401.167,96.5 395.5,96.5C 395.667,85.8281 395.5,75.1615 395,64.5C 392.752,58.7666 388.586,56.9332 382.5,59C 380.622,60.5429 379.122,62.3762 378,64.5C 377.5,75.1615 377.333,85.8281 377.5,96.5C 371.833,96.5 366.167,96.5 360.5,96.5C 360.5,79.5 360.5,62.5 360.5,45.5C 366.167,45.5 371.833,45.5 377.5,45.5C 377.337,47.8568 377.503,50.1902 378,52.5C 380.362,48.7553 383.528,46.0886 387.5,44.5 Z"/></g>
<g><path style="opacity:1" fill="#797979" d="M 72.5,46.5 C 67.1667,46.5 61.8333,46.5 56.5,46.5C 56.5,63.1667 56.5,79.8333 56.5,96.5C 55.5034,79.6749 55.1701,62.6749 55.5,45.5C 61.358,45.1778 67.0247,45.5111 72.5,46.5 Z"/></g>
<g><path style="opacity:1" fill="#000000" d="M 72.5,46.5 C 72.5,63.1667 72.5,79.8333 72.5,96.5C 67.1667,96.5 61.8333,96.5 56.5,96.5C 56.5,79.8333 56.5,63.1667 56.5,46.5C 61.8333,46.5 67.1667,46.5 72.5,46.5 Z"/></g>
<g><path style="opacity:1" fill="#fafbfc" d="M 334.5,45.5 C 340.167,45.5 345.833,45.5 351.5,45.5C 351.5,62.5 351.5,79.5 351.5,96.5C 345.833,96.5 340.167,96.5 334.5,96.5C 334.5,79.5 334.5,62.5 334.5,45.5 Z"/></g>
<g><path style="opacity:1" fill="#696969" d="M 97.5,46.5 C 92.1667,46.5 86.8333,46.5 81.5,46.5C 81.5,63.1667 81.5,79.8333 81.5,96.5C 80.5034,79.6749 80.1701,62.6749 80.5,45.5C 86.358,45.1778 92.0247,45.5111 97.5,46.5 Z"/></g>
<g><path style="opacity:1" fill="#f9f9f9" d="M 224.5,60.5 C 224.5,61.5 224.5,62.5 224.5,63.5C 218.167,63.5 211.833,63.5 205.5,63.5C 206.799,54.8369 211.799,51.6703 220.5,54C 222.923,55.5707 224.256,57.7374 224.5,60.5 Z"/></g>
<g><path style="opacity:1" fill="#f6f6f6" d="M 270.5,54.5 C 276.363,54.5322 280.53,57.1989 283,62.5C 283.789,68.2367 283.456,73.9034 282,79.5C 275.593,86.1063 269.259,86.1063 263,79.5C 258.262,68.7506 260.762,60.4173 270.5,54.5 Z"/></g>
<g><path style="opacity:1" fill="#989898" d="M 224.5,60.5 C 225.434,61.5676 225.768,62.901 225.5,64.5C 218.646,64.824 211.979,64.4907 205.5,63.5C 211.833,63.5 218.167,63.5 224.5,63.5C 224.5,62.5 224.5,61.5 224.5,60.5 Z"/></g>
</svg>
