<?xml version="1.0" encoding="UTF-8"?>
<!DOCTYPE svg PUBLIC "-//W3C//DTD SVG 1.1//EN" "http://www.w3.org/Graphics/SVG/1.1/DTD/svg11.dtd">
<svg xmlns="http://www.w3.org/2000/svg" version="1.1" width="48" viewBox="0 0 203 249" style="shape-rendering:geometricPrecision; text-rendering:geometricPrecision; image-rendering:optimizeQuality; fill-rule:evenodd; clip-rule:evenodd" xmlns:xlink="http://www.w3.org/1999/xlink">
<g><path style="opacity:1" fill="#ff2116" d="M 20.5,-0.5 C 61.8333,-0.5 103.167,-0.5 144.5,-0.5C 149.01,1.08809 153.343,3.25475 157.5,6C 170.029,18.8629 182.862,31.3629 196,43.5C 198.992,47.1574 201.159,51.1574 202.5,55.5C 202.5,112.833 202.5,170.167 202.5,227.5C 199.269,237.732 192.602,244.732 182.5,248.5C 128.167,248.5 73.8333,248.5 19.5,248.5C 9.0876,245.087 2.42094,238.087 -0.5,227.5C -0.5,158.5 -0.5,89.5 -0.5,20.5C 2.83333,9.83333 9.83333,2.83333 20.5,-0.5 Z"/></g>
<g><path style="opacity:1" fill="#f5f3f3" d="M 21.5,7.5 C 61.8347,7.33334 102.168,7.50001 142.5,8C 145.785,8.75886 148.785,10.0922 151.5,12C 164.029,24.8629 176.862,37.3629 190,49.5C 191.586,51.6705 192.92,54.0038 194,56.5C 194.667,112.833 194.667,169.167 194,225.5C 192.605,233.228 188.105,238.062 180.5,240C 127.5,240.667 74.5,240.667 21.5,240C 14.3333,238.167 9.83333,233.667 8,226.5C 7.33333,158.167 7.33333,89.8333 8,21.5C 10.0166,14.3185 14.5166,9.65179 21.5,7.5 Z"/></g>
<g><path style="opacity:1" fill="#ff2417" d="M 92.5,47.5 C 98.0305,47.1767 101.864,49.51 104,54.5C 105.119,65.4077 103.953,76.0744 100.5,86.5C 104.046,94.8957 109.046,102.396 115.5,109C 116.5,109.167 117.5,109.333 118.5,109.5C 127.479,108.418 136.479,108.251 145.5,109C 151.812,110.962 154.312,115.128 153,121.5C 149.668,124.129 145.835,125.462 141.5,125.5C 130.963,123.939 121.796,119.605 114,112.5C 104.971,114.299 96.1373,116.799 87.5,120C 81.6377,129.535 74.6377,138.202 66.5,146C 60.6571,150.303 54.8238,150.47 49,146.5C 48.0037,142.793 48.6704,139.459 51,136.5C 53.8333,134.333 56.6667,132.167 59.5,130C 66.239,126.882 72.739,123.382 79,119.5C 84.81,107.714 89.6434,95.5478 93.5,83C 89.4848,73.2279 87.9848,63.0613 89,52.5C 89.9973,50.6769 91.1639,49.0103 92.5,47.5 Z"/></g>
<g><path style="opacity:1" fill="#f7eae9" d="M 93.5,50.5 C 98.328,50.7634 100.328,53.4301 99.5,58.5C 99.1766,65.4446 97.6766,72.1112 95,78.5C 92.4323,72.4321 90.9323,66.0987 90.5,59.5C 90.5185,56.111 91.5185,53.111 93.5,50.5 Z"/></g>
<g><path style="opacity:1" fill="#f6efee" d="M 98.5,91.5 C 102.73,97.7432 107.397,103.743 112.5,109.5C 112.291,110.086 111.957,110.586 111.5,111C 103.66,112.29 95.9929,113.957 88.5,116C 92.2544,107.993 95.5877,99.8265 98.5,91.5 Z"/></g>
<g><path style="opacity:1" fill="#f6eeed" d="M 123.5,110.5 C 130.257,110.123 136.924,110.623 143.5,112C 148.143,117.554 146.81,120.72 139.5,121.5C 131.737,120.247 124.737,117.247 118.5,112.5C 120.291,111.83 121.958,111.163 123.5,110.5 Z"/></g>
<g><path style="opacity:1" fill="#f6eeee" d="M 72.5,125.5 C 74.0281,125.517 74.5281,126.184 74,127.5C 69.8782,133.291 65.3782,138.791 60.5,144C 57.5347,146.33 54.368,146.83 51,145.5C 50.3333,143.833 50.3333,142.167 51,140.5C 57.4472,134.369 64.6138,129.369 72.5,125.5 Z"/></g>
<g><path style="opacity:1" fill="#a2a2a2" d="M 74.5,175.5 C 69.8333,175.5 65.1667,175.5 60.5,175.5C 60.5,187.833 60.5,200.167 60.5,212.5C 62.5,212.5 64.5,212.5 66.5,212.5C 64.3926,213.468 62.0593,213.802 59.5,213.5C 59.5,200.5 59.5,187.5 59.5,174.5C 64.6946,174.179 69.6946,174.513 74.5,175.5 Z"/></g>
<g><path style="opacity:1" fill="#2a2a2a" d="M 74.5,175.5 C 78.9612,175.79 81.7945,178.123 83,182.5C 84.292,194.64 78.792,199.64 66.5,197.5C 66.5,202.5 66.5,207.5 66.5,212.5C 64.5,212.5 62.5,212.5 60.5,212.5C 60.5,200.167 60.5,187.833 60.5,175.5C 65.1667,175.5 69.8333,175.5 74.5,175.5 Z"/></g>
<g><path style="opacity:1" fill="#282828" d="M 88.5,174.5 C 110.931,173.022 118.764,183.022 112,204.5C 110.108,208.058 107.275,210.558 103.5,212C 98.5111,212.499 93.5111,212.666 88.5,212.5C 88.5,199.833 88.5,187.167 88.5,174.5 Z"/></g>
<g><path style="opacity:1" fill="#484848" d="M 141.5,175.5 C 134.833,175.5 128.167,175.5 121.5,175.5C 121.5,187.833 121.5,200.167 121.5,212.5C 120.505,200.011 120.171,187.344 120.5,174.5C 127.687,174.175 134.687,174.509 141.5,175.5 Z"/></g>
<g><path style="opacity:1" fill="#292929" d="M 141.5,175.5 C 141.5,176.833 141.5,178.167 141.5,179.5C 136.5,179.5 131.5,179.5 126.5,179.5C 126.5,183.5 126.5,187.5 126.5,191.5C 130.5,191.5 134.5,191.5 138.5,191.5C 138.5,193.167 138.5,194.833 138.5,196.5C 134.5,196.5 130.5,196.5 126.5,196.5C 126.5,201.833 126.5,207.167 126.5,212.5C 124.833,212.5 123.167,212.5 121.5,212.5C 121.5,200.167 121.5,187.833 121.5,175.5C 128.167,175.5 134.833,175.5 141.5,175.5 Z"/></g>
<g><path style="opacity:1" fill="#f4f4f4" d="M 66.5,179.5 C 76.3549,179.041 79.0215,183.208 74.5,192C 71.854,192.497 69.1873,192.664 66.5,192.5C 66.5,188.167 66.5,183.833 66.5,179.5 Z"/></g>
<g><path style="opacity:1" fill="#f2f2f2" d="M 94.5,179.5 C 104.274,179.023 108.607,183.69 107.5,193.5C 108.579,203.417 104.246,208.083 94.5,207.5C 94.5,198.167 94.5,188.833 94.5,179.5 Z"/></g>
</svg>
