<?xml version="1.0" encoding="UTF-8"?>
<!DOCTYPE svg PUBLIC "-//W3C//DTD SVG 1.1//EN" "http://www.w3.org/Graphics/SVG/1.1/DTD/svg11.dtd">
<svg xmlns="http://www.w3.org/2000/svg" version="1.1" width="128" viewBox="0 0 460 109" style="shape-rendering:geometricPrecision; text-rendering:geometricPrecision; image-rendering:optimizeQuality; fill-rule:evenodd; clip-rule:evenodd" xmlns:xlink="http://www.w3.org/1999/xlink">
<g><path style="opacity:1" fill="#fbfcfc" d="M -0.5,-0.5 C 17.5,-0.5 35.5,-0.5 53.5,-0.5C 15.2528,18.4875 -2.08052,49.3208 1.5,92C 15.3291,100.995 30.3291,106.495 46.5,108.5C 30.8333,108.5 15.1667,108.5 -0.5,108.5C -0.5,72.1667 -0.5,35.8333 -0.5,-0.5 Z"/></g>
<g><path style="opacity:1" fill="#1f3260" d="M 53.5,-0.5 C 54.5,-0.5 55.5,-0.5 56.5,-0.5C 93.5236,17.8525 111.357,47.8525 110,89.5C 109.535,90.9308 108.701,92.0975 107.5,93C 94.1017,101.045 79.7684,106.212 64.5,108.5C 58.5,108.5 52.5,108.5 46.5,108.5C 30.3291,106.495 15.3291,100.995 1.5,92C -2.08052,49.3208 15.2528,18.4875 53.5,-0.5 Z"/></g>
<g><path style="opacity:1" fill="#fdfdfe" d="M 56.5,-0.5 C 190.833,-0.5 325.167,-0.5 459.5,-0.5C 459.5,35.8333 459.5,72.1667 459.5,108.5C 327.833,108.5 196.167,108.5 64.5,108.5C 79.7684,106.212 94.1017,101.045 107.5,93C 108.701,92.0975 109.535,90.9308 110,89.5C 111.357,47.8525 93.5236,17.8525 56.5,-0.5 Z"/></g>
<g><path style="opacity:1" fill="#8bcdf1" d="M 53.5,7.5 C 73.3302,15.1613 87.4968,28.8279 96,48.5C 98.6057,54.5888 100.106,60.9221 100.5,67.5C 97.4816,67.6646 94.4816,67.498 91.5,67C 85.5532,58.0528 79.2198,49.3862 72.5,41C 71.5,40.3333 70.5,40.3333 69.5,41C 66.979,43.2198 64.8123,45.7198 63,48.5C 58.9429,43.4415 55.2762,38.1082 52,32.5C 49.8723,29.5422 47.2056,28.8756 44,30.5C 35.8894,42.943 27.3894,55.1097 18.5,67C 15.5184,67.498 12.5184,67.6646 9.5,67.5C 14.5748,40.4307 29.2415,20.4307 53.5,7.5 Z"/></g>
<g><path style="opacity:1" fill="#001e59" d="M 271.5,37.5 C 271.5,48.8333 271.5,60.1667 271.5,71.5C 278.687,71.1755 285.687,71.5088 292.5,72.5C 285.167,72.5 277.833,72.5 270.5,72.5C 270.172,60.6547 270.505,48.988 271.5,37.5 Z"/></g>
<g><path style="opacity:1" fill="#1b3466" d="M 426.5,37.5 C 432.842,37.3338 439.175,37.5005 445.5,38C 457.036,42.5717 460.87,50.7384 457,62.5C 454.28,67.5512 450.113,70.7178 444.5,72C 438.509,72.4995 432.509,72.6662 426.5,72.5C 426.5,60.8333 426.5,49.1667 426.5,37.5 Z"/></g>
<g><path style="opacity:1" fill="#183365" d="M 157.5,37.5 C 157.5,39.1667 157.5,40.8333 157.5,42.5C 153.629,42.185 149.962,42.5184 146.5,43.5C 146.5,53.1667 146.5,62.8333 146.5,72.5C 144.5,72.5 142.5,72.5 140.5,72.5C 140.5,62.5 140.5,52.5 140.5,42.5C 136.5,42.5 132.5,42.5 128.5,42.5C 128.5,40.8333 128.5,39.1667 128.5,37.5C 138.167,37.5 147.833,37.5 157.5,37.5 Z"/></g>
<g><path style="opacity:1" fill="#1e3768" d="M 168.5,37.5 C 174.176,37.3339 179.843,37.5006 185.5,38C 193.489,41.4399 195.989,47.2733 193,55.5C 191.854,57.6438 190.354,59.4772 188.5,61C 190.765,64.936 193.432,68.6027 196.5,72C 194.167,72.6667 191.833,72.6667 189.5,72C 187.167,69 184.833,66 182.5,63C 179.854,62.5026 177.187,62.3359 174.5,62.5C 174.5,65.8333 174.5,69.1667 174.5,72.5C 172.5,72.5 170.5,72.5 168.5,72.5C 168.5,60.8333 168.5,49.1667 168.5,37.5 Z"/></g>
<g><path style="opacity:1" fill="#1b3566" d="M 249.5,37.5 C 251.5,37.5 253.5,37.5 255.5,37.5C 255.5,49.1667 255.5,60.8333 255.5,72.5C 253.5,72.5 251.5,72.5 249.5,72.5C 249.5,60.8333 249.5,49.1667 249.5,37.5 Z"/></g>
<g><path style="opacity:1" fill="#193465" d="M 271.5,37.5 C 273.167,37.5 274.833,37.5 276.5,37.5C 276.5,47.5 276.5,57.5 276.5,67.5C 282.167,67.5 287.833,67.5 293.5,67.5C 293.784,69.4147 293.451,71.0813 292.5,72.5C 285.687,71.5088 278.687,71.1755 271.5,71.5C 271.5,60.1667 271.5,48.8333 271.5,37.5 Z"/></g>
<g><path style="opacity:1" fill="#1e3768" d="M 309.5,37.5 C 309.5,42.8333 309.5,48.1667 309.5,53.5C 315.69,53.8229 321.69,53.4896 327.5,52.5C 327.5,47.5 327.5,42.5 327.5,37.5C 329.5,37.5 331.5,37.5 333.5,37.5C 333.5,49.1667 333.5,60.8333 333.5,72.5C 331.5,72.5 329.5,72.5 327.5,72.5C 327.5,67.8333 327.5,63.1667 327.5,58.5C 321.5,58.5 315.5,58.5 309.5,58.5C 309.5,63.1667 309.5,67.8333 309.5,72.5C 307.5,72.5 305.5,72.5 303.5,72.5C 303.5,60.8333 303.5,49.1667 303.5,37.5C 305.5,37.5 307.5,37.5 309.5,37.5 Z"/></g>
<g><path style="opacity:1" fill="#193466" d="M 371.5,42.5 C 365.833,42.5 360.167,42.5 354.5,42.5C 354.5,46.1667 354.5,49.8333 354.5,53.5C 359.5,53.5 364.5,53.5 369.5,53.5C 369.5,55.1667 369.5,56.8333 369.5,58.5C 364.833,58.5 360.167,58.5 355.5,58.5C 354.523,61.2869 354.19,64.2869 354.5,67.5C 360.167,67.5 365.833,67.5 371.5,67.5C 371.5,69.1667 371.5,70.8333 371.5,72.5C 363.833,72.5 356.167,72.5 348.5,72.5C 348.5,60.8333 348.5,49.1667 348.5,37.5C 356.167,37.5 363.833,37.5 371.5,37.5C 371.5,39.1667 371.5,40.8333 371.5,42.5 Z"/></g>
<g><path style="opacity:1" fill="#1d3667" d="M 220.5,37.5 C 221.376,37.3691 222.043,37.7025 222.5,38.5C 227.705,49.7428 233.038,60.9095 238.5,72C 233.35,73.5196 230.35,71.6863 229.5,66.5C 224.198,65.3372 218.864,65.1705 213.5,66C 212.373,67.7533 211.373,69.5866 210.5,71.5C 208.5,72.8333 206.5,72.8333 204.5,71.5C 209.654,60.0169 214.987,48.6835 220.5,37.5 Z"/></g>
<g><path style="opacity:1" fill="#1e3667" d="M 397.5,37.5 C 398.376,37.3691 399.043,37.7025 399.5,38.5C 404.926,49.6063 410.26,60.7729 415.5,72C 410.35,73.5196 407.35,71.6863 406.5,66.5C 401.198,65.3372 395.864,65.1705 390.5,66C 389.373,67.7533 388.373,69.5866 387.5,71.5C 385.5,72.8333 383.5,72.8333 381.5,71.5C 386.847,60.1404 392.181,48.8071 397.5,37.5 Z"/></g>
<g><path style="opacity:1" fill="#a673b0" d="M 46.5,67.5 C 43.8827,62.8859 40.8827,58.5526 37.5,54.5C 40.1106,50.0493 42.9439,45.7159 46,41.5C 47,40.1667 48,40.1667 49,41.5C 51.9192,46.3397 55.0859,51.0064 58.5,55.5C 55.8045,59.0296 53.3045,62.6963 51,66.5C 49.6439,67.3802 48.1439,67.7135 46.5,67.5 Z"/></g>
<g><path style="opacity:1" fill="#8a93ab" d="M 157.5,37.5 C 158.461,39.2646 158.795,41.2646 158.5,43.5C 154.5,43.5 150.5,43.5 146.5,43.5C 149.962,42.5184 153.629,42.185 157.5,42.5C 157.5,40.8333 157.5,39.1667 157.5,37.5 Z"/></g>
<g><path style="opacity:1" fill="#c6cbd6" d="M 128.5,42.5 C 132.5,42.5 136.5,42.5 140.5,42.5C 140.5,52.5 140.5,62.5 140.5,72.5C 139.506,63.0144 139.173,53.3478 139.5,43.5C 135.629,43.815 131.962,43.4816 128.5,42.5 Z"/></g>
<g><path style="opacity:1" fill="#98a0b4" d="M 182.5,43.5 C 180.167,43.5 177.833,43.5 175.5,43.5C 175.5,47.8333 175.5,52.1667 175.5,56.5C 177.5,56.5 179.5,56.5 181.5,56.5C 179.393,57.4682 177.059,57.8016 174.5,57.5C 174.5,52.5 174.5,47.5 174.5,42.5C 177.385,42.1936 180.052,42.5269 182.5,43.5 Z"/></g>
<g><path style="opacity:1" fill="#fbfbfc" d="M 182.5,43.5 C 187.183,45.2095 188.683,48.5429 187,53.5C 185.736,55.607 183.903,56.607 181.5,56.5C 179.5,56.5 177.5,56.5 175.5,56.5C 175.5,52.1667 175.5,47.8333 175.5,43.5C 177.833,43.5 180.167,43.5 182.5,43.5 Z"/></g>
<g><path style="opacity:1" fill="#f7f8f9" d="M 432.5,42.5 C 447.089,41.2429 452.922,47.5762 450,61.5C 445.388,66.8889 439.555,68.8889 432.5,67.5C 432.5,59.1667 432.5,50.8333 432.5,42.5 Z"/></g>
<g><path style="opacity:1" fill="#f2f3f5" d="M 397.5,48.5 C 399.726,51.9446 401.726,55.6112 403.5,59.5C 399.878,60.6586 396.211,60.8253 392.5,60C 394.655,56.366 396.321,52.5326 397.5,48.5 Z"/></g>
<g><path style="opacity:1" fill="#eff1f4" d="M 220.5,48.5 C 222.711,51.9128 224.711,55.5795 226.5,59.5C 222.878,60.6586 219.211,60.8253 215.5,60C 217.308,56.2188 218.974,52.3854 220.5,48.5 Z"/></g>
<g><path style="opacity:1" fill="#a573b0" d="M 71.5,67.5 C 69.5,64.8333 67.5,62.1667 65.5,59.5C 67.0765,56.6884 68.9098,54.0217 71,51.5C 74.6947,56.3617 78.1947,61.3617 81.5,66.5C 78.2317,67.487 74.8984,67.8204 71.5,67.5 Z"/></g>
<g><path style="opacity:1" fill="#b9bdc9" d="M 309.5,37.5 C 310.487,42.3054 310.821,47.3054 310.5,52.5C 316.167,52.5 321.833,52.5 327.5,52.5C 321.69,53.4896 315.69,53.8229 309.5,53.5C 309.5,48.1667 309.5,42.8333 309.5,37.5 Z"/></g>
<g><path style="opacity:1" fill="#808ba5" d="M 371.5,42.5 C 366.36,43.4881 361.026,43.8214 355.5,43.5C 355.5,46.5 355.5,49.5 355.5,52.5C 360.5,52.5 365.5,52.5 370.5,52.5C 370.795,54.7354 370.461,56.7354 369.5,58.5C 369.5,56.8333 369.5,55.1667 369.5,53.5C 364.5,53.5 359.5,53.5 354.5,53.5C 354.5,49.8333 354.5,46.1667 354.5,42.5C 360.167,42.5 365.833,42.5 371.5,42.5 Z"/></g>
<g><path style="opacity:1" fill="#712a86" d="M 37.5,54.5 C 40.8827,58.5526 43.8827,62.8859 46.5,67.5C 40.4908,67.6662 34.4908,67.4995 28.5,67C 31.3632,62.6521 34.3632,58.4854 37.5,54.5 Z"/></g>
<g><path style="opacity:1" fill="#702a86" d="M 65.5,59.5 C 67.5,62.1667 69.5,64.8333 71.5,67.5C 60.4311,69.3629 58.4311,66.6963 65.5,59.5 Z"/></g>
<g><path style="opacity:1" fill="#9fa6b9" d="M 355.5,58.5 C 355.5,61.1667 355.5,63.8333 355.5,66.5C 361.026,66.1786 366.36,66.5119 371.5,67.5C 365.833,67.5 360.167,67.5 354.5,67.5C 354.19,64.2869 354.523,61.2869 355.5,58.5 Z"/></g>
<g><path style="opacity:1" fill="#099849" d="M 48.5,75.5 C 47.0863,79.2083 47.253,82.8749 49,86.5C 52.0255,89.3987 55.1921,91.8987 58.5,94C 57.0944,95.978 56.0944,98.1447 55.5,100.5C 39.0575,100.521 23.7242,96.3541 9.5,88C 8.53632,83.9341 8.20299,79.7675 8.5,75.5C 21.8333,75.5 35.1667,75.5 48.5,75.5 Z"/></g>
<g><path style="opacity:1" fill="#f6f9f8" d="M 48.5,75.5 C 51.8333,75.5 55.1667,75.5 58.5,75.5C 57.6321,77.4021 56.6321,79.2355 55.5,81C 58.6814,83.3187 61.8481,85.8187 65,88.5C 66.8223,92.09 66.9889,95.7567 65.5,99.5C 62.272,100.414 58.9387,100.747 55.5,100.5C 56.0944,98.1447 57.0944,95.978 58.5,94C 55.1921,91.8987 52.0255,89.3987 49,86.5C 47.253,82.8749 47.0863,79.2083 48.5,75.5 Z"/></g>
<g><path style="opacity:1" fill="#089949" d="M 58.5,75.5 C 73.1667,75.5 87.8333,75.5 102.5,75.5C 102.824,79.5546 102.491,83.5546 101.5,87.5C 90.4512,94.3579 78.4512,98.3579 65.5,99.5C 66.9889,95.7567 66.8223,92.09 65,88.5C 61.8481,85.8187 58.6814,83.3187 55.5,81C 56.6321,79.2355 57.6321,77.4021 58.5,75.5 Z"/></g>
<g><path style="opacity:1" fill="#147239" d="M 24.5,79.5 C 32.689,85.285 31.3557,87.1183 20.5,85C 21.6647,83.0083 22.998,81.175 24.5,79.5 Z"/></g>
<g><path style="opacity:1" fill="#13743a" d="M 80.5,82.5 C 83.0692,83.3956 85.0692,85.0623 86.5,87.5C 83.1667,88.8333 79.8333,88.8333 76.5,87.5C 77.8569,85.8144 79.1902,84.1477 80.5,82.5 Z"/></g>
<g><path style="opacity:1" fill="#147339" d="M 35.5,86.5 C 38.0692,87.3956 40.0692,89.0623 41.5,91.5C 38.2156,92.657 34.8823,92.8236 31.5,92C 33.4641,90.549 34.7974,88.7157 35.5,86.5 Z"/></g>
</svg>
